<svg width="60" height="60" viewBox="0 0 60 60" fill="none" xmlns="http://www.w3.org/2000/svg">
<g clip-path="url(#clip0_375_20)">
<circle cx="30" cy="30" r="30" fill="#241F32"/>
<path d="M19.8437 27.7626L24.4765 12.4219L11.7188 31.8109L30 47.5781V44.0979L19.8437 27.7626Z" fill="url(#paint0_linear_375_20)"/>
<path d="M35.5235 12.4219L40.1563 27.7626L30 44.0979V47.5781L48.2813 31.8109L35.5235 12.4219Z" fill="url(#paint1_linear_375_20)"/>
<path d="M30.0001 20.5005L23.354 27.1591L30.0001 45.0033L36.6462 27.1591L30.0001 20.5005Z" fill="#F54007"/>
<path d="M24.4765 12.4219L11.7188 31.8109L30 47.5781L48.2813 31.8109L35.5235 12.4219L46.3591 31.5854L29.9693 45.8734L13.58 31.5978L24.4765 12.4219Z" fill="#F2D1B4"/>
</g>
<defs>
<linearGradient id="paint0_linear_375_20" x1="12.9375" y1="32.0282" x2="23.1615" y2="32.0282" gradientUnits="userSpaceOnUse">
<stop stop-color="#FA7819"/>
<stop offset="1" stop-color="#F54007"/>
</linearGradient>
<linearGradient id="paint1_linear_375_20" x1="47.401" y1="32.2987" x2="37.7188" y2="32.4343" gradientUnits="userSpaceOnUse">
<stop stop-color="#FA7819"/>
<stop offset="1" stop-color="#F54007"/>
</linearGradient>
<clipPath id="clip0_375_20">
<rect width="60" height="60" fill="white"/>
</clipPath>
</defs>
</svg>
